<svg width="32" height="32" viewBox="0 0 32 32" fill="none" xmlns="http://www.w3.org/2000/svg">
<path d="M16 0C28.803 0 32 3.197 32 16C32 28.803 28.803 32 16 32C3.197 32 0 28.803 0 16C0 3.197 3.197 0 16 0ZM13.375 24.749C16.74 24.754 19.516 21.989 19.522 18.625C19.522 15.265 16.755 12.5 13.397 12.5C10.032 12.5 7.266 15.265 7.266 18.625C7.266 21.978 10.022 24.745 13.375 24.749ZM24.5 24.5V7.5H7.5V10.495H21.495V24.5H24.5ZM13.375 15.505C13.7853 15.5046 14.1916 15.5852 14.5706 15.7422C14.9496 15.8991 15.294 16.1294 15.5838 16.4197C15.8737 16.71 16.1034 17.0547 16.2597 17.434C16.4161 17.8133 16.4961 18.2197 16.495 18.63C16.4949 19.0401 16.4139 19.4461 16.2567 19.8248C16.0996 20.2036 15.8693 20.5476 15.5791 20.8373C15.2888 21.127 14.9443 21.3566 14.5653 21.513C14.1862 21.6695 13.7801 21.7497 13.37 21.749C9.209 21.749 9.209 15.5 13.375 15.505Z" fill="white"/>
<path d="M5.91304 4.86957H26.7826V25.0435H5.91304V4.86957Z" fill="white"/>
<path d="M3.36842 13.6421C3.36842 12.4329 4.34868 11.4526 5.55789 11.4526H21.3895C22.5987 11.4526 23.5789 12.4329 23.5789 13.6421C23.5789 14.8513 22.5987 15.8316 21.3895 15.8316H5.55789C4.34868 15.8316 3.36842 14.8513 3.36842 13.6421Z" fill="black"/>
<path d="M8.75789 20.2105C8.75789 19.0943 9.66275 18.1895 10.7789 18.1895H16.1684C17.2846 18.1895 18.1895 19.0943 18.1895 20.2105C18.1895 21.3267 17.2846 22.2316 16.1684 22.2316H10.7789C9.66275 22.2316 8.75789 21.3267 8.75789 20.2105Z" fill="black"/>
<path d="M24.5895 13.6421C24.5895 12.4329 25.5697 11.4526 26.7789 11.4526C27.9882 11.4526 28.9684 12.4329 28.9684 13.6421C28.9684 14.8513 27.9882 15.8316 26.7789 15.8316C25.5697 15.8316 24.5895 14.8513 24.5895 13.6421Z" fill="black"/>
<path d="M3.36842 20.2105C3.36842 19.0943 4.27328 18.1895 5.38947 18.1895H5.72632C6.84251 18.1895 7.74737 19.0943 7.74737 20.2105C7.74737 21.3267 6.84251 22.2316 5.72632 22.2316H5.38947C4.27328 22.2316 3.36842 21.3267 3.36842 20.2105Z" fill="black"/>
<path d="M19.2 20.2105C19.2 19.0943 20.1049 18.1895 21.2211 18.1895H21.5579C22.6741 18.1895 23.5789 19.0943 23.5789 20.2105C23.5789 21.3267 22.6741 22.2316 21.5579 22.2316H21.2211C20.1049 22.2316 19.2 21.3267 19.2 20.2105Z" fill="black"/>
<path d="M24.5895 20.2105C24.5895 19.0943 25.4943 18.1895 26.6105 18.1895H26.9474C28.0636 18.1895 28.9684 19.0943 28.9684 20.2105C28.9684 21.3267 28.0636 22.2316 26.9474 22.2316H26.6105C25.4943 22.2316 24.5895 21.3267 24.5895 20.2105Z" fill="black"/>
</svg>
